<svg width="540" height="547" viewBox="0 0 540 547" xmlns="http://www.w3.org/2000/svg">
<mask id="path-1-outside-1_1_63" maskUnits="userSpaceOnUse" x="0" y="0" width="540" height="547" fill="black">
<rect fill="white" width="540" height="547"/>
<path fill-rule="evenodd" clip-rule="evenodd" d="M105.896 127C133.464 64.0106 196.342 20 269.5 20C342.658 20 405.536 64.0106 433.104 127H470C497.614 127 520 149.386 520 177V477C520 504.614 497.614 527 470 527H70C42.3858 527 20 504.614 20 477V177C20 149.386 42.3858 127 70 127H105.896Z"/>
</mask>
<path fill-rule="evenodd" clip-rule="evenodd" d="M105.896 127C133.464 64.0106 196.342 20 269.5 20C342.658 20 405.536 64.0106 433.104 127H470C497.614 127 520 149.386 520 177V477C520 504.614 497.614 527 470 527H70C42.3858 527 20 504.614 20 477V177C20 149.386 42.3858 127 70 127H105.896Z" fill="#F4F5F0"/>
<path d="M105.896 127V147H118.975L124.219 135.019L105.896 127ZM433.104 127L414.781 135.019L420.025 147H433.104V127ZM124.219 135.019C148.716 79.045 204.57 40 269.5 40V0C188.114 0 118.212 48.9762 87.5744 118.981L124.219 135.019ZM269.5 40C334.43 40 390.284 79.045 414.781 135.019L451.426 118.981C420.788 48.9762 350.886 0 269.5 0V40ZM433.104 147H470V107H433.104V147ZM470 147C486.569 147 500 160.431 500 177H540C540 138.34 508.66 107 470 107V147ZM500 177V477H540V177H500ZM500 477C500 493.569 486.569 507 470 507V547C508.66 547 540 515.66 540 477H500ZM470 507H70V547H470V507ZM70 507C53.4315 507 40 493.569 40 477H0C0 515.66 31.3401 547 70 547V507ZM40 477V177H0V477H40ZM40 177C40 160.431 53.4315 147 70 147V107C31.3401 107 0 138.34 0 177H40ZM70 147H105.896V107H70V147Z" fill="#A62B30" mask="url(#path-1-outside-1_1_63)"/>
</svg>
